# xmcd
#
# Track frame offsets: 
#        150
#        20507
#        48450
#        67626
#        94023
#        115925
#        154015
#        195178
#        251090
#        279306
#
# Disc length: 4198 seconds
#
# Revision: 0
# Processed by: cddbd v1.5.2PL0 Copyright (c) Steve Scherf et al.
# Submitted via: ExactAudioCopyFreeDBPlugin 1.0
#
DISCID=7710640a
DTITLE=Jan Kyks Skrzek  -  In Memoriam
DYEAR=2015
DGENRE=Blues
TTITLE0=Bo Takie Sa Dziewczyny
TTITLE1=Swing Jasia
TTITLE2=Sweet Home
TTITLE3=Kino
TTITLE4=Kolory Bluesa
TTITLE5=Zaklety w Klawisze
TTITLE6=O Malym Jasiu
TTITLE7=Dla Jasia
TTITLE8=Modlitwa Bluesmana w Pociagu
TTITLE9=Sztajger
EXTD=
EXTT0=
EXTT1=
EXTT2=
EXTT3=
EXTT4=
EXTT5=
EXTT6=
EXTT7=
EXTT8=
EXTT9=
PLAYORDER=
